<svg width="8" height="13" viewBox="0 0 8 13" fill="none" xmlns="http://www.w3.org/2000/svg">
<path d="M5.39789 2.89609H7.00626C7.15423 2.89609 7.27433 2.78292 7.27433 2.64349V1.1279C7.27433 0.988469 7.15423 0.875305 7.00626 0.875305H5.39789C3.77235 0.875305 2.44919 2.12162 2.44919 3.65388V5.42207H0.572751C0.42478 5.42207 0.304688 5.53523 0.304688 5.67467V7.19025C0.304688 7.32969 0.42478 7.44285 0.572751 7.44285H2.44919V12.7474C2.44919 12.8868 2.56928 13 2.71725 13H4.32563C4.4736 13 4.5937 12.8868 4.5937 12.7474V7.44285H6.47014C6.58541 7.44285 6.68781 7.37313 6.7248 7.27007L7.26092 5.75449C7.28827 5.6777 7.27433 5.59282 7.22393 5.52664C7.173 5.46097 7.09258 5.42207 7.00626 5.42207H4.5937V3.65388C4.5937 3.23609 4.95451 2.89609 5.39789 2.89609Z" fill="white"/>
</svg>
