<svg width="104" height="100" viewBox="0 0 104 100" fill="none" xmlns="http://www.w3.org/2000/svg">
<rect width="104" height="100" fill="#FF3030"/>
<path d="M38.912 58H34.88L41.912 41.92H47.048L54.128 58H50L48.488 54.448H40.448L38.912 58ZM43.352 47.704L41.84 51.208H47.096L45.584 47.704L44.6 45.208H44.336L43.352 47.704ZM61.3758 58.24C57.2478 58.24 54.6078 55.792 54.6078 52C54.6078 48.16 57.2478 45.736 61.3758 45.736C65.2398 45.736 67.8798 47.8 67.8798 50.92V51.256H64.3038V51.064C64.3038 49.528 63.1758 48.976 61.3038 48.976C59.1678 48.976 58.1838 49.768 58.1838 52C58.1838 54.208 59.1678 55 61.3038 55C63.1758 55 64.3038 54.448 64.3038 52.912V52.72H67.8798V53.056C67.8798 56.152 65.2398 58.24 61.3758 58.24Z" fill="white"/>
</svg>
