<svg width="22" height="21" viewBox="0 0 22 21" fill="none" xmlns="http://www.w3.org/2000/svg">
<path fill-rule="evenodd" clip-rule="evenodd" d="M5.47907 0.759384L9.40601 6.15349L7.68105 9.14925C7.74237 9.33008 7.84094 9.59043 7.9878 9.90028C8.28723 10.5321 8.78215 11.3587 9.56172 12.1382C10.3875 12.9641 11.2639 13.5055 11.9345 13.84C12.2681 14.0064 12.548 14.1202 12.7411 14.1914L15.7283 12.4714L21.2661 16.555L20.9429 17.1322C20.0176 18.7856 18.8364 19.9668 17.183 20.8922L17.0282 20.9788L16.851 20.9869C11.9723 21.2103 7.77729 18.5573 4.95412 15.2738C3.53771 13.6263 2.44292 11.7952 1.76153 10.0326C1.08529 8.28334 0.791825 6.53689 1.06358 5.08388L1.0874 4.95651L1.15257 4.84452C2.08734 3.23827 3.29416 2.04092 4.8931 1.10308L5.47907 0.759384ZM12.8237 15.0093C12.6254 15.7326 12.6252 15.7326 12.6249 15.7325L12.6233 15.7321L12.6205 15.7313L12.6127 15.7291L12.5884 15.7221C12.5685 15.7162 12.5412 15.7079 12.5071 15.697C12.4388 15.6753 12.3429 15.6433 12.2239 15.5994C11.9861 15.5118 11.6545 15.3766 11.265 15.1823C10.4877 14.7946 9.46784 14.1657 8.50105 13.1989C7.5727 12.2706 6.98677 11.2906 6.63233 10.5427C6.45474 10.168 6.33396 9.84885 6.25658 9.61938C6.21786 9.50453 6.18989 9.41182 6.17104 9.34546C6.16162 9.31227 6.15446 9.28563 6.14937 9.26607L6.14326 9.2421L6.14131 9.23421L6.14061 9.23131L6.14033 9.23012C6.14027 9.22988 6.14008 9.22911 6.86968 9.05535L6.14008 9.22911L6.07106 8.93929L7.62013 6.24899L5.07925 2.75878C4.01855 3.48103 3.19165 4.35888 2.51675 5.48434C2.35254 6.54781 2.56333 7.94669 3.16062 9.49171C3.7764 11.0846 4.77928 12.7696 6.09152 14.2958C8.68905 17.317 12.4068 19.6192 16.6046 19.4952C17.7424 18.832 18.594 18.0327 19.293 16.9637L15.6272 14.2605L12.9269 15.8153L12.6249 15.7325L12.8237 15.0093Z" fill="white"/>
</svg>
