<svg width="13" height="13" viewBox="0 0 13 13" fill="none" xmlns="http://www.w3.org/2000/svg">
<path d="M1.91873 3.8424C2.73807 3.8424 3.40228 3.1782 3.40228 2.35885C3.40228 1.53951 2.73807 0.875305 1.91873 0.875305C1.09939 0.875305 0.435178 1.53951 0.435178 2.35885C0.435178 3.1782 1.09939 3.8424 1.91873 3.8424Z" fill="white"/>
<path d="M3.1549 4.83331H0.682317C0.54583 4.83331 0.435059 4.94408 0.435059 5.08057V12.4983C0.435059 12.6348 0.54583 12.7456 0.682317 12.7456H3.1549C3.29139 12.7456 3.40216 12.6348 3.40216 12.4983V5.08057C3.40216 4.94408 3.29139 4.83331 3.1549 4.83331Z" fill="white"/>
<path d="M10.5231 4.42195C9.46632 4.05997 8.14448 4.37794 7.35177 4.94812C7.32457 4.8418 7.22764 4.76267 7.11242 4.76267H4.63984C4.50335 4.76267 4.39258 4.87344 4.39258 5.00993V12.4277C4.39258 12.5642 4.50335 12.6749 4.63984 12.6749H7.11242C7.24891 12.6749 7.35968 12.5642 7.35968 12.4277V7.09679C7.75925 6.75261 8.27404 6.64282 8.69537 6.82184C9.10384 6.99443 9.33774 7.41575 9.33774 7.97703V12.4277C9.33774 12.5642 9.44852 12.6749 9.585 12.6749H12.0576C12.1941 12.6749 12.3048 12.5642 12.3048 12.4277V7.47905C12.2767 5.44708 11.3208 4.69492 10.5231 4.42195Z" fill="white"/>
</svg>
