<svg width="13" height="12" viewBox="0 0 13 12" fill="none" xmlns="http://www.w3.org/2000/svg">
<path d="M12.4951 2.13998C12.4139 2.0482 12.283 2.02512 12.1756 2.08173C12.1088 2.1169 11.9832 2.16307 11.8341 2.20869C12.0222 1.95147 12.1734 1.66347 12.2402 1.40461C12.2691 1.29304 12.2269 1.17542 12.135 1.10892C12.0431 1.04297 11.9207 1.04297 11.8288 1.10892C11.684 1.2128 10.9851 1.52497 10.5432 1.6261C9.54448 0.726392 8.38228 0.632959 7.17414 1.35844C6.19202 1.94817 5.97828 3.14742 6.01996 3.87839C3.77199 3.6558 2.37469 2.43457 1.58814 1.42384C1.5331 1.35295 1.4444 1.31557 1.36104 1.32107C1.27341 1.32766 1.19433 1.37768 1.14944 1.45517C0.777543 2.10096 0.674415 2.8149 0.852351 3.52005C0.949601 3.90478 1.11952 4.24388 1.31669 4.51869C1.22211 4.47087 1.13074 4.41096 1.04471 4.33952C0.965631 4.27246 0.855023 4.25982 0.761513 4.30434C0.668538 4.34996 0.609226 4.44669 0.609226 4.55276C0.609226 5.76355 1.34555 6.57147 2.03324 6.99357C1.9221 6.97983 1.80615 6.95455 1.68913 6.91773C1.58867 6.8864 1.47967 6.91773 1.4102 6.99907C1.34074 7.07986 1.32417 7.19528 1.36746 7.29366C1.75378 8.17248 2.48583 8.77705 3.39154 8.99634C2.60071 9.47395 1.54219 9.70809 0.572891 9.59322C0.44732 9.57508 0.327628 9.65697 0.288087 9.78119C0.248546 9.9054 0.300377 10.0417 0.410985 10.1055C1.88149 10.9546 3.21093 11.258 4.35977 11.258C6.03172 11.258 7.32215 10.616 8.10763 10.0791C10.2252 8.6336 11.545 6.03835 11.3612 3.71626C11.7005 3.45849 12.2082 2.98253 12.5229 2.47085C12.5881 2.36752 12.5763 2.23122 12.4951 2.13998Z" fill="white"/>
</svg>
